<svg width="88" height="50" viewBox="0 0 88 50" fill="none" xmlns="http://www.w3.org/2000/svg">
<path d="M13.482 24.4337C12.4958 27.5156 13.767 29.9195 14.7066 31.1737C14.7066 27.5526 14.7723 26.6581 15.4531 24.9404C16.1339 23.2226 17.1788 22.0352 18.9501 20.8393C18.974 20.8232 14.6126 20.9004 13.482 24.4337Z" fill="#C4C4C4" stroke="#C6C6C6" stroke-width="0.057734"/>
<path d="M22.2152 11.5126C21.2337 11.859 20.6275 12.7924 20.3677 13.2446C23.3506 13.6103 29.813 15.3 31.799 18.4407C34.2816 22.3666 35.4651 28.4286 35.4651 30.305C36.8507 30.7207 38.4384 29.6122 38.958 28.4286L43.1149 14.457C43.2496 14.1299 43.0841 12.5522 39.4353 9.29602C34.1622 9.92146 23.8987 10.9184 22.2152 11.5126Z" fill="#FB0200"/>
<path d="M39.1021 9.40534C39.4716 9.24369 40.3531 9.20331 40.7475 9.20331C43.9807 11.3395 43.2012 17.1129 40.4011 18.6717C38.2362 19.6243 35.7536 21.9337 34.7432 22.8574C34.5412 21.7316 32.0297 17.5458 29.6338 16.1602C30.673 14.3993 38.6403 9.60742 39.1021 9.40534Z" fill="#FEE801" stroke="#FEE801" stroke-width="0.057734"/>
<path d="M20.5985 41.3322C27.7728 41.3322 33.5887 35.5163 33.5887 28.3421C33.5887 21.1678 27.7728 15.3519 20.5985 15.3519C13.4243 15.3519 7.6084 21.1678 7.6084 28.3421C7.6084 35.5163 13.4243 41.3322 20.5985 41.3322Z" stroke="#0176FA" stroke-width="4.33005"/>
<path d="M74.5183 24.4337C75.5041 27.5156 74.2332 29.9195 73.2936 31.1737C73.2936 27.5526 73.2276 26.6581 72.547 24.9404C71.8664 23.2226 70.8214 22.0352 69.0499 20.8393C69.0261 20.8232 73.3876 20.9004 74.5183 24.4337Z" fill="#C4C4C4" stroke="#C6C6C6" stroke-width="0.057734"/>
<path d="M65.7852 11.5126C66.7665 11.859 67.3728 12.7924 67.6327 13.2446C64.6494 13.6103 58.1874 15.3 56.201 18.4407C53.7186 22.3666 52.5352 28.4286 52.5352 30.305C51.1492 30.7207 49.5615 29.6122 49.0423 28.4286L44.8853 14.457C44.7506 14.1299 44.9161 12.5522 48.5651 9.29602C53.8378 9.92146 64.1013 10.9184 65.7852 11.5126Z" fill="#FB0200"/>
<path d="M48.8978 9.40534C48.5283 9.24369 47.647 9.20331 47.2523 9.20331C44.0192 11.3395 44.7986 17.1129 47.5988 18.6717C49.7635 19.6243 52.2463 21.9337 53.2565 22.8574C53.4586 21.7316 55.9703 17.5458 58.366 16.1602C57.327 14.3993 49.3598 9.60742 48.8978 9.40534Z" fill="#FEE801" stroke="#FEE801" stroke-width="0.057734"/>
<path d="M67.4015 41.3322C60.2272 41.3322 54.4113 35.5163 54.4113 28.3421C54.4113 21.1678 60.2272 15.3519 67.4015 15.3519C74.5757 15.3519 80.3916 21.1678 80.3916 28.3421C80.3916 35.5163 74.5757 41.3322 67.4015 41.3322Z" stroke="#0176FA" stroke-width="4.33005"/>
<path d="M44.3007 19.7051C47.4893 19.7051 50.0741 17.1203 50.0741 13.9317C50.0741 10.7432 47.4893 8.15833 44.3007 8.15833C41.1122 8.15833 38.5273 10.7432 38.5273 13.9317C38.5273 17.1203 41.1122 19.7051 44.3007 19.7051Z" fill="#0176FA"/>
<path d="M44.3013 18.0309C46.5651 18.0309 48.4004 16.1956 48.4004 13.9318C48.4004 11.6679 46.5651 9.83264 44.3013 9.83264C42.0374 9.83264 40.2021 11.6679 40.2021 13.9318C40.2021 16.1956 42.0374 18.0309 44.3013 18.0309Z" fill="#FEE801"/>
<path d="M44.3299 16.0679C45.4938 16.0679 46.4372 15.1244 46.4372 13.9606C46.4372 12.7968 45.4938 11.8533 44.3299 11.8533C43.1661 11.8533 42.2227 12.7968 42.2227 13.9606C42.2227 15.1244 43.1661 16.0679 44.3299 16.0679Z" fill="#FB0200"/>
</svg>
