<svg width="29" height="29" viewBox="0 0 29 29" fill="none" xmlns="http://www.w3.org/2000/svg">
<path fill-rule="evenodd" clip-rule="evenodd" d="M13.0129 4.70649H14.8512V13.313L18.8231 17.2848L17.5231 18.5847L13.0407 14.1023H13.0129V4.70649ZM14.1156 0.0085144C21.9068 0.0085144 28.2227 6.3245 28.2227 14.1156C28.2227 16.5936 27.583 18.922 26.4608 20.9459L24.9767 19.4617C25.7731 17.8498 26.2214 16.0353 26.2214 14.1156C26.2214 7.44116 20.8108 2.03054 14.1363 2.03054C7.46192 2.03054 2.0512 7.44116 2.0512 14.1156C2.0512 20.7901 7.46192 26.2008 14.1363 26.2008C15.8811 26.2008 17.5392 25.8304 19.0372 25.1649L20.547 26.6746C18.6185 27.6642 16.4323 28.2228 14.1156 28.2228C6.32453 28.2228 0.00854492 21.9067 0.00854492 14.1156C0.00854492 6.3245 6.32453 0.0085144 14.1156 0.0085144Z" fill="#4B4B4B"/>
</svg>
