<svg width="1920" height="1080" viewBox="0 0 1920 1080" fill="none" xmlns="http://www.w3.org/2000/svg">
<rect width="1920" height="1080" fill="white"/>
<path d="M294.154 533.099C272.638 600.341 300.372 652.79 320.873 680.153C320.873 601.148 322.306 581.632 337.16 544.153C352.013 506.674 374.811 480.767 413.458 454.676C413.98 454.324 318.822 456.009 294.154 533.099Z" fill="#C4C4C4" stroke="#C6C6C6" stroke-width="1.25965"/>
<path d="M484.694 251.184C463.28 258.742 450.053 279.107 444.385 288.974C509.467 296.952 650.464 333.818 693.796 402.343C747.961 487.999 773.783 620.262 773.783 661.201C804.015 670.27 838.655 646.085 849.992 620.262L940.687 315.427C943.626 308.289 940.015 273.867 860.405 202.823C745.357 216.469 521.425 238.22 484.694 251.184Z" fill="#FB0200"/>
<path d="M853.141 205.207C861.203 201.68 880.434 200.799 889.041 200.799C959.582 247.406 942.576 373.371 881.483 407.381C834.247 428.165 780.082 478.552 758.038 498.706C753.629 474.143 698.834 382.818 646.559 352.586C669.232 314.167 843.064 209.616 853.141 205.207Z" fill="#FEE801" stroke="#FEE801" stroke-width="1.25965"/>
<circle cx="449.421" cy="618.373" r="283.421" stroke="#0176FA" stroke-width="94.4738"/>
<path d="M1625.85 533.099C1647.36 600.341 1619.63 652.79 1599.13 680.153C1599.13 601.148 1597.69 581.632 1582.84 544.153C1567.99 506.674 1545.19 480.767 1506.54 454.676C1506.02 454.324 1601.18 456.009 1625.85 533.099Z" fill="#C4C4C4" stroke="#C6C6C6" stroke-width="1.25965"/>
<path d="M1435.31 251.184C1456.72 258.742 1469.95 279.107 1475.62 288.974C1410.53 296.952 1269.54 333.818 1226.2 402.343C1172.04 487.999 1146.22 620.262 1146.22 661.201C1115.98 670.27 1081.34 646.085 1070.01 620.262L979.313 315.427C976.374 308.289 979.985 273.867 1059.6 202.823C1174.64 216.469 1398.57 238.22 1435.31 251.184Z" fill="#FB0200"/>
<path d="M1066.86 205.207C1058.8 201.68 1039.57 200.799 1030.96 200.799C960.418 247.406 977.424 373.371 1038.52 407.381C1085.75 428.165 1139.92 478.552 1161.96 498.706C1166.37 474.143 1221.17 382.818 1273.44 352.586C1250.77 314.167 1076.94 209.616 1066.86 205.207Z" fill="#FEE801" stroke="#FEE801" stroke-width="1.25965"/>
<circle cx="283.421" cy="283.421" r="283.421" transform="matrix(-1 0 0 1 1754 334.952)" stroke="#0176FA" stroke-width="94.4738"/>
<circle cx="966.567" cy="303.965" r="125.965" fill="#0176FA"/>
<circle cx="966.566" cy="303.965" r="89.4352" fill="#FEE801"/>
<circle cx="967.198" cy="304.595" r="45.9772" fill="#FB0200"/>
</svg>
