<svg width="50" height="52" viewBox="0 0 50 52" fill="none" xmlns="http://www.w3.org/2000/svg">
<path d="M7.86003 0.312895C9.09755 0.54493 10.2929 0.921107 11.4495 1.38869C12.6097 1.85979 13.6609 2.47504 14.6593 3.18872C15.6683 3.91295 16.5437 4.76726 17.3559 5.6743C18.175 6.5919 18.9028 7.5798 19.5461 8.60638C20.1965 9.63999 20.752 10.7334 21.1774 11.8619C21.5958 12.9728 21.87 14.1717 21.7118 15.3494C21.638 15.8838 21.4938 16.3971 21.2688 16.8963C21.0368 17.4096 20.7415 17.8913 20.4075 18.3518C20.07 18.8229 19.6692 19.2589 19.2754 19.6878C18.8395 20.1554 18.3754 20.6019 17.9008 21.0343C17.1484 21.7234 16.3609 22.3773 15.584 23.0417C14.9793 23.5621 14.3464 24.0578 13.7523 24.5922C12.7679 25.4746 11.7554 26.3359 10.9046 27.3309C10.655 27.6332 10.4159 27.9426 10.1944 28.2625C9.95185 28.6176 9.74795 28.9973 9.56161 29.377C9.30146 29.9676 9.11864 30.5794 9.01317 31.2087C8.93583 31.8309 8.93934 32.4497 9.0202 33.0685C9.14325 33.7786 9.36474 34.4677 9.66005 35.1322C10.1136 36.0814 10.7077 36.9709 11.3898 37.797C12.2687 38.8236 13.2706 39.7483 14.3886 40.5533C15.4574 41.2952 16.607 41.9069 17.8375 42.3956C19.3387 42.9616 20.9173 43.3307 22.5239 43.5417C23.7157 43.6788 24.9181 43.7315 26.1169 43.6893C25.2204 42.6944 24.4435 41.6151 23.8599 40.4479C23.3044 39.3369 22.9212 38.1381 22.9493 36.9076C22.9599 36.3697 23.0724 35.8283 23.3009 35.3326C23.4204 35.0654 23.5575 34.8193 23.7368 34.5767C23.9442 34.299 24.1868 34.0423 24.447 33.8032C24.8759 33.4095 25.3857 33.079 25.8884 32.7696C26.1451 32.6114 26.4052 32.4638 26.6759 32.3267C27.0099 32.1579 27.3615 32.0243 27.7095 31.8907C28.2896 31.6692 28.9084 31.5497 29.5307 31.4794C30.1951 31.4055 30.849 31.4231 31.5135 31.5075C32.7686 31.6692 33.985 32.1122 35.0151 32.7907C35.5249 33.1247 35.9784 33.515 36.3687 33.965C36.7905 34.4536 37.1175 34.9775 37.3741 35.554C37.5991 36.0638 37.7503 36.5841 37.8312 37.1326C37.8769 37.4279 37.9085 37.7232 37.9156 38.022C37.9226 38.3596 37.8699 38.6935 37.8171 39.0275C37.6343 40.1772 36.9487 41.2108 36.0769 42.0299C35.6479 42.4342 35.1487 42.7823 34.6389 43.0987C34.0975 43.4362 33.5104 43.7069 32.9092 43.946C31.9073 44.3432 30.8666 44.621 29.7979 44.8108C30.1846 45.1202 30.5818 45.419 30.9897 45.7108C32.6209 46.8499 34.3612 47.8589 36.2456 48.6078C37.4972 49.0789 38.7874 49.4234 40.1269 49.6062C41.4629 49.7539 42.8129 49.7609 44.1489 49.6132C44.9961 49.4972 45.8293 49.3144 46.645 49.0613C47.0704 48.9277 47.4887 48.7835 47.9177 48.6535C48.0864 48.6007 48.2552 48.5445 48.4239 48.4882C48.6384 48.4179 48.8599 48.3687 49.0743 48.2949C49.3767 48.1894 49.7458 48.3617 49.9005 48.6042C50.0587 48.8503 50.0341 49.223 49.7845 49.4164C49.5771 49.5781 49.3942 49.7644 49.1798 49.9156C48.9372 50.0879 48.6911 50.2496 48.4345 50.4043C48.3079 50.4816 48.1567 50.5379 48.0196 50.5976C47.879 50.6574 47.7384 50.7136 47.5977 50.7699C47.2321 50.914 46.8594 51.0301 46.4762 51.132C45.8329 51.3078 45.1684 51.4027 44.5075 51.4836C43.8219 51.568 43.1258 51.5926 42.4332 51.5891C41.1183 51.5855 39.7964 51.4273 38.5167 51.1461C37.2546 50.8719 36.0452 50.4289 34.8745 49.9226C33.746 49.4339 32.6702 48.8363 31.6436 48.1894C30.5608 47.5073 29.5166 46.7655 28.5357 45.964C28.1912 45.6827 27.8537 45.3944 27.5267 45.0921C25.4701 45.2397 23.3923 45.1132 21.3673 44.744C18.85 44.287 16.4207 43.394 14.3289 42.0229C12.2863 40.6869 10.553 38.9502 9.29794 36.9603C8.6616 35.9513 8.17995 34.8509 7.93385 33.7083C7.68776 32.5728 7.72994 31.4091 8.00768 30.284C8.27487 29.1977 8.82331 28.1606 9.50887 27.2465C10.0854 26.4766 10.7569 25.7453 11.4847 25.0914C12.1245 24.5148 12.7574 23.9347 13.4148 23.3757C14.1004 22.7921 14.7824 22.2121 15.4644 21.6249C15.8406 21.298 16.2203 20.9745 16.6 20.6476C17.4262 19.9339 18.1996 19.1534 18.9063 18.3343C19.3739 17.7717 19.7782 17.1776 20.0911 16.5342C20.2633 16.1264 20.3829 15.7151 20.4567 15.2826C20.5024 14.8678 20.4919 14.4635 20.4391 14.0522C20.2809 13.0924 19.9469 12.1783 19.5391 11.2853C18.8008 9.74897 17.8621 8.29348 16.7582 6.95401C15.8406 5.87821 14.8211 4.88679 13.6468 4.04303C13.1863 3.72662 12.7081 3.4313 12.2089 3.16411C11.7202 2.90043 11.2069 2.67895 10.6866 2.47152C9.4702 2.01097 8.19753 1.68752 6.89322 1.51174C5.93695 1.40276 4.98069 1.39221 4.02442 1.49768C3.56035 1.56096 3.09628 1.63127 2.63924 1.71917C2.39314 1.76487 2.15056 1.81761 1.90446 1.87034C1.68298 1.91956 1.46149 1.96175 1.24352 2.02503C1.07125 2.1305 0.804054 2.13753 0.614208 2.08831C0.403267 2.03558 0.220455 1.9055 0.111469 1.73323C-0.11705 1.37463 0.0165405 0.889466 0.413811 0.682041C0.645847 0.562508 0.920074 0.502742 1.17672 0.453522C1.46852 0.397271 1.75681 0.344536 2.04861 0.291801C2.71307 0.175784 3.38807 0.0984385 4.05957 0.038672C4.36895 0.0105466 4.67833 0 4.98771 0C5.95804 0 6.93189 0.119533 7.88112 0.295317L7.86003 0.312895ZM19.5426 11.3451C19.5426 11.3451 19.5567 11.3732 19.5602 11.3838C19.5532 11.3697 19.5461 11.3556 19.5426 11.3451ZM29.608 33.1106C29.0947 33.1845 28.599 33.3075 28.1174 33.4798C27.4002 33.7716 26.7357 34.1478 26.1064 34.5732C25.7865 34.8122 25.4912 35.0689 25.2275 35.3572C25.0868 35.54 24.9673 35.7263 24.8618 35.9302C24.774 36.1517 24.7107 36.3732 24.6685 36.6052C24.6333 36.9568 24.6404 37.3013 24.679 37.6494C24.788 38.2787 24.9849 38.8834 25.2451 39.474C25.7056 40.4303 26.3033 41.3162 26.9888 42.1495C27.3966 42.6241 27.8326 43.0776 28.2896 43.5135C29.4885 43.3342 30.6627 43.053 31.7877 42.6311C32.5647 42.3182 33.303 41.9385 33.9815 41.478C34.4069 41.1651 34.8007 40.824 35.1417 40.4373C35.3632 40.1596 35.5601 39.8678 35.7218 39.5584C35.8554 39.235 35.9503 38.908 36.0101 38.567C36.0522 38.1732 36.0452 37.7865 35.996 37.3927C35.9151 36.9463 35.7886 36.5138 35.6128 36.0919C35.4335 35.7298 35.2225 35.3888 34.9729 35.0689C34.6987 34.7595 34.3964 34.4853 34.0624 34.2322C33.651 33.9579 33.2116 33.7259 32.7475 33.5325C32.2272 33.3427 31.6928 33.2056 31.1373 33.1212C30.6276 33.0685 30.1213 33.0649 29.608 33.1142V33.1106ZM11.4214 37.8533C11.4214 37.8533 11.4425 37.8779 11.4531 37.892C11.4425 37.8779 11.4319 37.8638 11.4214 37.8533ZM14.459 40.6201C14.459 40.6201 14.4906 40.6447 14.5082 40.6553C14.4906 40.6447 14.4765 40.6307 14.459 40.6201Z" fill="#31739F"/>
</svg>
